<svg xmlns="http://www.w3.org/2000/svg" xml:space="preserve" id="Слой_1" x="0" y="0"
    style="enable-background:new 0 0 50 50" version="1.1" viewBox="0 0 50 50" width="50" height="50" class="anime-svg">
    <style>
        .st0,
        .st1 {
            fill: none;
            stroke: #ffa5ba;
            stroke-width: 3;
            stroke-linejoin: round;
            stroke-miterlimit: 10;
        }

        .st1 {
            stroke-linecap: round
        }
    </style>
    <!-- <path
        d="M3.105 15.465c-.438-8 7.562-6 7.562-6a5.198 5.198 0 0 1 1-3c2-3 4.738-2.316 6-2 1.831.458 2.8 2.484 3.317 4.693v6.307"
        class="st0" /> -->
    <!-- <path d="M7.886 2.934c.248 3.859-.219 3.531 2.781 6.531" class="st1" />
    <path
        d="M20.979 9.157a3.516 3.516 0 0 1 1.675-1.692c3.969-2 4.961 2 4.961 2s1.169-3 3.969-3c.86-.104 1.732.03 2.521.388a5.738 5.738 0 0 1 1.8 1.306c1.293 1.473 1.28 4.438-.243 7.306"
        class="st0" /> -->
    <!-- <path d="M29.315 2.011c-.684 2.157-2.803.454-1.7 7.454" class="st1" /> -->
    <!-- <path d="M3.423 23.139s5.561 8.326 15.556 8.326 13.839-4.147 16.6-8.326" class="st0" /> -->
    <!-- <path d="m33.665 33.613 3.319-18.148h-35l6 32h23l1-5" class="st0" /> -->
    <!-- <path
        d="M33.665 33.613c-2.4 1.289-3.239 5.786-1.681 8.852 2.033 4 7.358 4.009 8 4a8.833 8.833 0 0 0 4-1 8.308 8.308 0 0 0 4-5c.2-.753 1.087-4.131-1-6a4.64 4.64 0 0 0-4-1 5.436 5.436 0 0 0-2 1 5.77 5.77 0 0 0-1 1 8.01 8.01 0 0 0-3-2 6.083 6.083 0 0 0-3.319.148z"
        class="st0" /> -->
    <path stroke-linecap="round" d="M41.006 29.09c-.704 1.336-1.022 2.375-1.022 2.375-.344 1.649-.344 2.351 0 4"
        class="st1" />
</svg>