<?xml version="1.0" encoding="utf-8"?>
<!-- Generator: Adobe Illustrator 26.0.1, SVG Export Plug-In . SVG Version: 6.00 Build 0)  -->
<svg version="1.1" id="Слой_1" xmlns="http://www.w3.org/2000/svg" xmlns:xlink="http://www.w3.org/1999/xlink" x="0px"
    y="0px" viewBox="0 0 50 50" style="enable-background:new 0 0 50 50;" xml:space="preserve">
    <style type="text/css">
        .st0 {
            fill: none;
            stroke: #FFA5BA;
            stroke-width: 3;
            stroke-linejoin: round;
            stroke-miterlimit: 10;
        }
    </style>
    <path id="pass1" class="st0" d="M18,21.6L2,21.7l4.8,26.6h19.9l4.2-26.6C26.1,21.6,22.8,21.6,18,21.6" />
    <path id="pass2" class="st0" d="M3.4,29.5c7.9,8.3,18.9,8.4,26.2,0" />
    <path class="st0"
        d="M16.9,17.5c4.7,0.3,0.1-8.7,6.3-7.1c1.3,0.5,0.4,0.2,2.8,1.5c2.2,1.2,4.3-2.1,3.3-3.3c-3.6-3.7,0.3-4.2-0.6-6.8H5c-0.8,2.6,3,3-0.6,6.8c-0.9,1.3,1.2,4.5,3.3,3.3s1.5-1.1,2.8-1.5C16.8,9,12,17.9,16.9,17.5z" />
</svg>