<svg xmlns="http://www.w3.org/2000/svg" xml:space="preserve" x="0" y="0" style="enable-background:new 0 0 50 50"
    version="1.1" viewBox="0 0 50 50" width="50" height="50" class="anime-svg" fill="none" stroke="#ffa5ba"
    stroke-width="3" stroke-linejoin="round" stroke-miterlimit="10">
    <path d="M18.741 34.551h5.918v13.563h-5.918V34.551z" class="st0" />
    <path
        d="M18.796 34.574S12.021 30.628 7.06 24.71 1.374 13.86 2.342 9.915s3.872-7.891 9.679-7.891 8.712 4.932 8.712 4.932l.968.1.986-.123s2.959-4.932 8.877-4.932 8.877 3.946 9.864 7.891c.986 3.946.247 8.877-4.809 14.796s-11.96 9.864-11.96 9.864"
        class="st0" />
    <path
        d="M40.442 18.769h-1.973c-1.973 0-1.973-1.402-1.973-1.402s.146-1.925 0-2.544c-.208-.883-.986-1.973-3.148-1.807-2.161.166-2.663 1.106-2.771 1.945-.152 1.189.275 3.627 0 4.793-.204.865-.986 1.973-2.959 1.973s-2.777-.96-2.959-1.807c-.268-1.246.293-3.858 0-5.098-.507-2.146-2.959-1.803-2.959-1.803s-2.54-.361-2.959 1.804c-.242 1.251.315 3.863 0 5.098-.214.839-.986 1.807-2.959 1.807s-2.779-1.102-2.959-1.973c-.244-1.173.196-3.611 0-4.793-.139-.834-.609-1.779-2.771-1.945s-2.939.923-3.148 1.806c-.146.619 0 2.544 0 2.544s0 1.402-1.973 1.402c-.737 0-1.375.058-1.679.032"
        class="st0" />
</svg>